<svg viewBox="0 0 1214 346" xmlns="http://www.w3.org/2000/svg" fill="none" role="img">
  <g>
    <rect x="12" y="12" width="584" height="150" rx="16" fill="#0C1B21" stroke="#4FD1C5" stroke-opacity="0.22"/>
    <rect x="12" y="12" width="4" height="150" rx="2" fill="#4FD1C5"><animate attributeName="opacity" values="0.55;1;0.55" dur="2.6s" begin="0.0s" repeatCount="indefinite"/></rect>
    <circle cx="46" cy="46" r="5" fill="#7BF5E8"><animate attributeName="opacity" values="1;0.3;1" dur="1.8s" begin="0.0s" repeatCount="indefinite"/></circle>
    <text x="60" y="51" font-family="'Segoe UI',system-ui,sans-serif" font-size="21" font-weight="800" fill="#4FD1C5">Azure-Unused-Resources</text>
    <text x="40" y="84" font-family="'Segoe UI',system-ui,sans-serif" font-size="13.5" fill="#A9C4C0">Scans Azure for unused resources, exports a colour-coded cost report.</text>
    <rect x="40" y="104" width="85" height="22" rx="11" fill="none" stroke="#4FD1C5" stroke-opacity="0.5"/><text x="82" y="119" text-anchor="middle" font-family="'JetBrains Mono',monospace" font-size="10.5" fill="#9FE7DF">PowerShell</text><rect x="133" y="104" width="54" height="22" rx="11" fill="none" stroke="#4FD1C5" stroke-opacity="0.5"/><text x="160" y="119" text-anchor="middle" font-family="'JetBrains Mono',monospace" font-size="10.5" fill="#9FE7DF">Azure</text><rect x="195" y="104" width="54" height="22" rx="11" fill="none" stroke="#4FD1C5" stroke-opacity="0.5"/><text x="222" y="119" text-anchor="middle" font-family="'JetBrains Mono',monospace" font-size="10.5" fill="#9FE7DF">Excel</text>
  </g>
  <g>
    <rect x="618" y="12" width="584" height="150" rx="16" fill="#0C1B21" stroke="#4FD1C5" stroke-opacity="0.22"/>
    <rect x="618" y="12" width="4" height="150" rx="2" fill="#4FD1C5"><animate attributeName="opacity" values="0.55;1;0.55" dur="2.6s" begin="0.4s" repeatCount="indefinite"/></rect>
    <circle cx="652" cy="46" r="5" fill="#7BF5E8"><animate attributeName="opacity" values="1;0.3;1" dur="1.8s" begin="0.4s" repeatCount="indefinite"/></circle>
    <text x="666" y="51" font-family="'Segoe UI',system-ui,sans-serif" font-size="21" font-weight="800" fill="#4FD1C5">Docker-Monitoring</text>
    <text x="646" y="84" font-family="'Segoe UI',system-ui,sans-serif" font-size="13.5" fill="#A9C4C0">Container monitoring stack with Prometheus and Grafana dashboards.</text>
    <rect x="646" y="104" width="60" height="22" rx="11" fill="none" stroke="#4FD1C5" stroke-opacity="0.5"/><text x="676" y="119" text-anchor="middle" font-family="'JetBrains Mono',monospace" font-size="10.5" fill="#9FE7DF">Docker</text><rect x="714" y="104" width="85" height="22" rx="11" fill="none" stroke="#4FD1C5" stroke-opacity="0.5"/><text x="756" y="119" text-anchor="middle" font-family="'JetBrains Mono',monospace" font-size="10.5" fill="#9FE7DF">Prometheus</text><rect x="807" y="104" width="66" height="22" rx="11" fill="none" stroke="#4FD1C5" stroke-opacity="0.5"/><text x="840" y="119" text-anchor="middle" font-family="'JetBrains Mono',monospace" font-size="10.5" fill="#9FE7DF">Grafana</text>
  </g>
  <g>
    <rect x="12" y="184" width="584" height="150" rx="16" fill="#0C1B21" stroke="#4FD1C5" stroke-opacity="0.22"/>
    <rect x="12" y="184" width="4" height="150" rx="2" fill="#4FD1C5"><animate attributeName="opacity" values="0.55;1;0.55" dur="2.6s" begin="0.8s" repeatCount="indefinite"/></rect>
    <circle cx="46" cy="218" r="5" fill="#7BF5E8"><animate attributeName="opacity" values="1;0.3;1" dur="1.8s" begin="0.8s" repeatCount="indefinite"/></circle>
    <text x="60" y="223" font-family="'Segoe UI',system-ui,sans-serif" font-size="21" font-weight="800" fill="#4FD1C5">MigrationTool</text>
    <text x="40" y="256" font-family="'Segoe UI',system-ui,sans-serif" font-size="13.5" fill="#A9C4C0">End-to-end On-Prem to SaaS migration with Azure CI/CD and Docker.</text>
    <rect x="40" y="276" width="91" height="22" rx="11" fill="none" stroke="#4FD1C5" stroke-opacity="0.5"/><text x="86" y="291" text-anchor="middle" font-family="'JetBrains Mono',monospace" font-size="10.5" fill="#9FE7DF">Azure CI/CD</text><rect x="139" y="276" width="60" height="22" rx="11" fill="none" stroke="#4FD1C5" stroke-opacity="0.5"/><text x="169" y="291" text-anchor="middle" font-family="'JetBrains Mono',monospace" font-size="10.5" fill="#9FE7DF">Docker</text><rect x="207" y="276" width="54" height="22" rx="11" fill="none" stroke="#4FD1C5" stroke-opacity="0.5"/><text x="234" y="291" text-anchor="middle" font-family="'JetBrains Mono',monospace" font-size="10.5" fill="#9FE7DF">Pages</text>
  </g>
  <g>
    <rect x="618" y="184" width="584" height="150" rx="16" fill="#0C1B21" stroke="#4FD1C5" stroke-opacity="0.22"/>
    <rect x="618" y="184" width="4" height="150" rx="2" fill="#4FD1C5"><animate attributeName="opacity" values="0.55;1;0.55" dur="2.6s" begin="1.2s" repeatCount="indefinite"/></rect>
    <circle cx="652" cy="218" r="5" fill="#7BF5E8"><animate attributeName="opacity" values="1;0.3;1" dur="1.8s" begin="1.2s" repeatCount="indefinite"/></circle>
    <text x="666" y="223" font-family="'Segoe UI',system-ui,sans-serif" font-size="21" font-weight="800" fill="#4FD1C5">Terraform-VMcreation</text>
    <text x="646" y="256" font-family="'Segoe UI',system-ui,sans-serif" font-size="13.5" fill="#A9C4C0">Provisions Azure VMs from Terraform, driven by a pipeline.</text>
    <rect x="646" y="276" width="79" height="22" rx="11" fill="none" stroke="#4FD1C5" stroke-opacity="0.5"/><text x="686" y="291" text-anchor="middle" font-family="'JetBrains Mono',monospace" font-size="10.5" fill="#9FE7DF">Terraform</text><rect x="733" y="276" width="54" height="22" rx="11" fill="none" stroke="#4FD1C5" stroke-opacity="0.5"/><text x="760" y="291" text-anchor="middle" font-family="'JetBrains Mono',monospace" font-size="10.5" fill="#9FE7DF">Azure</text><rect x="795" y="276" width="72" height="22" rx="11" fill="none" stroke="#4FD1C5" stroke-opacity="0.5"/><text x="831" y="291" text-anchor="middle" font-family="'JetBrains Mono',monospace" font-size="10.5" fill="#9FE7DF">Pipeline</text>
  </g>
</svg>
